<svg width="67" height="66" viewBox="0 0 67 66" fill="none"
    xmlns="http://www.w3.org/2000/svg">
    <rect width="67" height="66" rx="8" fill="white"/>
    <path fill-rule="evenodd" clip-rule="evenodd" d="M53.0525 48.5295H15.7647V36.3278H53.0525V36.3604H53.2059V48.513H53.0525V48.5295Z" fill="black"/>
    <path fill-rule="evenodd" clip-rule="evenodd" d="M27.7731 28.6374C25.9596 28.6374 24.3422 29.3074 23.1658 30.4241L15.7647 21.446C17.1861 20.374 18.7546 19.4806 20.47 18.8106C22.7737 17.9173 25.2244 17.4706 27.7241 17.4706C30.2238 17.4706 32.6745 17.9173 34.9782 18.8106C37.2328 19.6593 39.1934 20.8653 40.9579 22.4733C42.6244 24.0367 43.9967 25.868 44.928 27.8781C44.9467 27.9122 44.9583 27.9398 44.9682 27.9634C44.981 27.9941 44.991 28.0179 45.0102 28.0404C45.0155 28.031 45.0208 28.0215 45.026 28.0121C45.9083 30.0668 46.3984 32.2108 46.3984 34.4442C46.3984 35.4715 46.3004 36.4542 46.1043 37.4369H33.2627C33.2872 37.3699 33.3239 37.314 33.3607 37.2582C33.3975 37.2024 33.4342 37.1465 33.4587 37.0795C33.4876 37.0713 33.5231 36.9869 33.5519 36.9786C33.9774 36.0459 34.194 35.3999 34.194 34.4888C34.194 31.2728 31.3021 28.6374 27.7731 28.6374Z" fill="black"/>
    <path d="M31.6489 38.7123L38.4777 48.5295C39.4982 47.8457 40.4215 47.0643 41.2961 46.234C42.9969 44.5245 44.3089 42.522 45.2322 40.3241C45.7667 39.0542 46.1555 37.6954 46.3985 36.3279H34.1272C33.544 37.3047 32.6694 38.1751 31.6489 38.7123Z" fill="black"/>
</svg>
